<svg width="72" height="72" viewBox="0 0 72 72" fill="none" xmlns="http://www.w3.org/2000/svg">
<circle cx="36" cy="36" r="36" fill="#C4C4C4" fill-opacity="0.02"/>
<circle cx="36" cy="36" r="35.5" stroke="white" stroke-opacity="0.1"/>
<path d="M45.4264 31.3947L43.5372 29.5055L44.5028 28.5399C45.0024 28.0403 45.0024 27.2305 44.5028 26.731L43.1463 25.3745C42.8965 25.1247 42.5692 25 42.2418 25C41.9145 25 41.5872 25.1247 41.3374 25.3745L40.3718 26.3401L39.4066 25.3745C39.1568 25.1247 38.8295 25 38.5022 25C38.1748 25 37.8475 25.1247 37.5977 25.3745L33.7413 29.2309C33.2417 29.7305 33.2417 30.5402 33.7413 31.0394L34.7069 32.005L24.7888 41.9231C24.2892 42.4227 24.2892 43.2325 24.7888 43.732L26.1452 45.0885C26.395 45.3383 26.7223 45.463 27.0497 45.463C27.377 45.463 27.7043 45.3383 27.9541 45.0885L37.8723 35.1703L39.7615 37.0596V41.6262H41.0404C45.9847 41.6262 49.993 37.6179 49.993 32.6736V31.3947H45.4264ZM42.2407 26.2789H42.2418L43.5983 27.6354L42.6327 28.601L41.2759 27.2437L42.2407 26.2789ZM27.0497 44.1841L25.6932 42.8276L35.6114 32.9094L36.9678 34.2659L27.0497 44.1841ZM41.0404 40.3472V36.53L34.6458 30.1353L38.501 26.2789H38.5022L44.8968 32.6736H48.7141C48.7141 36.9049 45.2717 40.3472 41.0404 40.3472Z" fill="#00F0B5"/>
</svg>
