<svg width="72" height="72" viewBox="0 0 72 72" fill="none" xmlns="http://www.w3.org/2000/svg">
<circle cx="36" cy="36" r="36" fill="#C4C4C4" fill-opacity="0.02"/>
<circle cx="36" cy="36" r="35.5" stroke="white" stroke-opacity="0.1"/>
<path d="M49.7637 35.4241L45.1632 28.0004C45.0294 27.8004 44.8147 27.7 44.6 27.7C44.3852 27.7 44.1705 27.8004 44.0368 28.0004L39.4362 35.4241C39.273 35.6679 39.1793 35.9607 39.2038 36.2526C39.4346 39.0231 41.7624 41.1999 44.6 41.1999C47.4375 41.1999 49.7654 39.0231 49.9961 36.2526C50.0206 35.9607 49.927 35.6679 49.7637 35.4241ZM44.6 39.8499C42.8458 39.8499 41.3283 38.7054 40.7702 37.1499H48.4145C47.8484 38.7206 46.3415 39.8499 44.6 39.8499ZM40.7917 35.8L44.6017 29.6507L48.4382 35.8H40.7917ZM45.6125 45.2499H37.175V30.3046C38.1154 30.0612 38.8503 29.3288 39.0996 28.391L45.3555 26.2977C45.5323 26.2386 45.6276 26.0471 45.5686 25.8707L45.3543 25.2308C45.2952 25.054 45.1037 24.9587 44.9273 25.0177L39.0878 26.9714C38.7684 25.8366 37.7369 25 36.5 25C35.0087 25 33.8 26.2087 33.8 27.7C33.8 28.0463 33.8705 28.3741 33.9915 28.6766L27.6445 30.8003C27.4677 30.8594 27.3724 31.0509 27.4314 31.2273L27.6457 31.8673C27.7048 32.044 27.8963 32.1394 28.0727 32.0803L34.8416 29.8157C35.1293 30.0418 35.4605 30.2097 35.8254 30.3042V46.2624C35.8254 46.4489 35.9765 46.5999 36.1629 46.5999H45.6129C45.7994 46.5999 45.9504 46.4489 45.9504 46.2624V45.5874C45.95 45.4009 45.7989 45.2499 45.6125 45.2499ZM35.15 27.7C35.15 26.9558 35.7558 26.35 36.5 26.35C37.2442 26.35 37.85 26.9558 37.85 27.7C37.85 28.4442 37.2442 29.05 36.5 29.05C35.7558 29.05 35.15 28.4442 35.15 27.7ZM28.9632 33.4003C28.8295 33.1999 28.6148 33.1 28.4 33.1C28.1853 33.1 27.9706 33.2004 27.8368 33.4003L23.2363 40.824C23.073 41.0679 22.9794 41.3607 23.0039 41.6526C23.2346 44.423 25.5625 46.5999 28.4 46.5999C31.2376 46.5999 33.5655 44.423 33.7962 41.6526C33.8207 41.3607 33.727 41.0679 33.5638 40.824L28.9632 33.4003ZM28.4 45.2499C26.6459 45.2499 25.1284 44.1054 24.5703 42.5499H32.2146C31.6485 44.1206 30.1415 45.2499 28.4 45.2499ZM24.5918 41.1999L28.4017 35.0507L32.2382 41.1999H24.5918Z" fill="#F67110"/>
</svg>
