<svg width="72" height="72" viewBox="0 0 72 72" fill="none" xmlns="http://www.w3.org/2000/svg">
<circle cx="36" cy="36" r="36" fill="#C4C4C4" fill-opacity="0.02"/>
<circle cx="36" cy="36" r="35.5" stroke="white" stroke-opacity="0.1"/>
<path d="M49.7308 39.5624C48.9995 36.5022 46.9575 34.5446 46.6987 31.8106C46.5075 29.8586 47.8913 28.5817 47.7507 26.219C47.6044 23.7832 45.8999 22.0056 43.7004 22C41.5009 22.0056 39.802 23.7832 39.6558 26.219C39.5151 28.5817 40.8934 29.8643 40.7077 31.8106C40.449 34.5446 38.4013 36.5078 37.6757 39.5624C36.9725 42.5045 37.6982 47.4323 39.262 50.3237L39.5151 50.7963H47.8969L48.1501 50.3237C49.7083 47.4323 50.434 42.5045 49.7308 39.5624ZM45.9506 26.3259C46.0462 27.9348 45.0449 29.0992 44.8986 31.0006H42.5022C42.356 29.0936 41.349 27.9404 41.4503 26.3259C41.6528 22.9451 45.7481 22.9451 45.9506 26.3259ZM46.8 48.9961H40.6008C39.4195 46.4535 38.857 42.3188 39.4195 39.9787C40.0214 37.4585 41.7765 35.6471 42.3503 32.7951H45.0505C45.6243 35.6471 47.3794 37.4585 47.9813 39.9787C48.5382 42.3245 47.9757 46.4535 46.8 48.9961ZM32.2978 31.8163C32.1122 29.8643 33.4904 28.5873 33.3497 26.2247C33.2035 23.7832 31.499 22.0113 29.2995 22.0056C27.1 22.0056 25.4011 23.7832 25.2492 26.2247C25.103 28.5873 26.4868 29.8643 26.3012 31.8163C26.0424 34.5558 23.9948 36.5134 23.2691 39.568C22.5659 42.5101 23.2916 47.4435 24.8554 50.335L25.1086 50.8075H33.4904L33.7435 50.335C35.3074 47.4435 36.033 42.5157 35.3299 39.568C34.6042 36.5134 32.5566 34.5502 32.2978 31.8163ZM31.5496 26.3315C31.6453 27.946 30.6439 29.0936 30.4977 31.0006H28.1013C27.955 29.0936 26.9481 27.946 27.0493 26.3315C27.2518 22.9507 31.3471 22.9507 31.5496 26.3315ZM32.3991 49.0018H26.1999C25.0186 46.4591 24.456 42.3245 25.0186 39.9843C25.6205 37.4641 27.3812 35.6528 27.9494 32.8007H30.6496C31.2234 35.6528 32.9785 37.4641 33.5804 39.9843C34.1429 42.3245 33.5804 46.4591 32.3991 49.0018Z" fill="#00F0B5"/>
</svg>
