<svg width="72" height="72" viewBox="0 0 72 72" fill="none" xmlns="http://www.w3.org/2000/svg">
<circle cx="36" cy="36" r="36" fill="#C4C4C4" fill-opacity="0.02"/>
<circle cx="36" cy="36" r="35.5" stroke="white" stroke-opacity="0.1"/>
<path d="M48.2951 34.4293C49.1642 31.7264 47.2985 29.8056 46.2572 29.2026C46.3897 27.3334 44.9737 25.5139 42.9477 25.2622C42.3546 23.9048 41.0066 23 39.4889 23C38.2684 23 37.1929 23.5881 36.5 24.484C35.8071 23.5881 34.7316 23 33.5111 23C31.9934 23 30.6454 23.9048 30.0518 25.2622C28.0258 25.5139 26.6098 27.3334 26.7423 29.2026C25.701 29.8061 23.8358 31.7264 24.7044 34.4293C23.6398 35.28 23 36.5715 23 37.9393C23 39.5638 23.8641 41.0354 25.2464 41.837C25.1332 44.2283 27.0674 46.2389 29.4621 46.1773C30.1689 47.5362 31.576 48.4118 33.1374 48.4118C34.5222 48.4118 35.7436 47.7268 36.5 46.6865C37.2564 47.7268 38.4778 48.4118 39.8626 48.4118C41.424 48.4118 42.8311 47.5362 43.5379 46.1773C45.9326 46.2389 47.8663 44.2278 47.7536 41.837C49.1359 41.0354 50 39.5638 50 37.9393C50 36.5715 49.3602 35.28 48.2951 34.4293ZM35.7029 29.8527C35.7029 31.1476 34.8065 32.2291 33.601 32.5349C33.4288 32.5785 33.3116 32.7379 33.3116 32.9151V33.7181C33.3116 33.9697 33.5444 34.1603 33.7921 34.1097C34.5083 33.9638 35.1589 33.6427 35.7029 33.197V44.2675C35.7029 45.6765 34.5524 46.8235 33.1374 46.8235C31.5546 46.8235 30.9422 45.741 30.5019 44.4312C29.6934 44.5672 29.5942 44.5901 29.4011 44.5901C27.9861 44.5901 26.8356 43.4431 26.8356 42.034C26.8356 41.7258 26.8783 41.5804 27.0177 40.894C25.7551 40.3728 24.5937 39.6924 24.5937 37.9393C24.5937 36.2588 25.7357 35.6091 26.7234 35.0438C26.0981 33.7677 26.0881 33.5945 26.0881 33.1002C26.0881 31.4172 27.1751 30.695 28.5385 30.1376C28.4139 29.5966 28.33 29.3132 28.33 29.0055C28.33 27.8074 29.3028 26.8316 30.5873 26.8316H30.6076L31.2395 26.845C31.5328 25.706 31.9854 24.5882 33.5111 24.5882C34.7192 24.5882 35.7029 25.5675 35.7029 26.7721V29.8527ZM45.9823 40.894C46.1217 41.5804 46.1644 41.7258 46.1644 42.034C46.1644 43.4431 45.0139 44.5901 43.5989 44.5901C43.4063 44.5901 43.3071 44.5672 42.4981 44.4312C42.0578 45.741 41.4454 46.8235 39.8626 46.8235C38.4476 46.8235 37.2971 45.6765 37.2971 44.2675V33.197C37.8411 33.6427 38.4917 33.9638 39.2079 34.1097C39.4556 34.1603 39.6884 33.9697 39.6884 33.7181V32.9151C39.6884 32.7379 39.5712 32.5785 39.399 32.5349C38.1935 32.2291 37.2971 31.1476 37.2971 29.8527V26.7721C37.2971 25.5675 38.2808 24.5882 39.4889 24.5882C41.0146 24.5882 41.4672 25.706 41.76 26.845L42.3919 26.8316H42.4122C43.6967 26.8316 44.6695 27.8074 44.6695 29.0055C44.6695 29.3132 44.5851 29.5971 44.461 30.1376C45.8239 30.6945 46.9114 31.4172 46.9114 33.1002C46.9114 33.5945 46.9015 33.7677 46.2761 35.0438C47.2638 35.6091 48.4058 36.2588 48.4058 37.9393C48.4058 39.6928 47.2449 40.3733 45.9823 40.894Z" fill="#F61067"/>
</svg>
