<svg width="72" height="72" viewBox="0 0 72 72" fill="none" xmlns="http://www.w3.org/2000/svg">
<circle cx="36" cy="36" r="36" fill="#C4C4C4" fill-opacity="0.02"/>
<circle cx="36" cy="36" r="35.5" stroke="white" stroke-opacity="0.1"/>
<path d="M28.625 32.5C28.6381 35.0987 28.5927 40.4288 26.2658 48.25H46.7329C44.4081 40.4579 44.3623 35.1151 44.375 32.5L47.2558 29.6192C47.4125 29.4625 47.5368 29.2765 47.6216 29.0717C47.7064 28.867 47.75 28.6476 47.75 28.426V20.6875C47.75 19.7555 46.9945 19 46.0625 19H26.9375C26.0055 19 25.25 19.7555 25.25 20.6875V28.426C25.25 28.8736 25.4278 29.3028 25.7442 29.6193L28.625 32.5ZM27.5 21.25H30.875V24.625H33.125V21.25H39.875V24.625H42.125V21.25H45.5V28.193L42.1295 31.5635C42.1156 34.4394 42.0483 39.0403 43.784 46H29.2131C30.9506 39.0256 30.8848 34.4373 30.8703 31.5634L27.5 28.193V21.25ZM38.4688 37H34.5312V33.0625C34.5312 31.9752 35.4127 31.0938 36.5 31.0938C37.5873 31.0938 38.4688 31.9752 38.4688 33.0625V37ZM50 51.3438V51.9062C50 52.3722 49.6222 52.75 49.1562 52.75H23.8438C23.3778 52.75 23 52.3722 23 51.9062V51.3438C23 50.8778 23.3778 50.5 23.8438 50.5H49.1562C49.6222 50.5 50 50.8778 50 51.3438Z" fill="#F67110"/>
</svg>
